<svg xmlns="http://www.w3.org/2000/svg" viewBox="125.28 169.28 248.6 112.02"><g data-name="Layer 2"><g data-name="Layer 1"><rect x="125.275" y="169.275" fill="#0094ff" rx="24.83" height="111.45" width="111.45" class="cls-1"/><path d="M223.275 224.645a42.18 42.18 0 1 1-42.21-42.17 42.17 42.17 0 0 1 42.21 42.17zm-59.29-27.75c-10.36 10.38-8.71 28.8 3.65 41.18s30.82 14 41.18 3.65 8.74-28.81-3.64-41.19-30.82-14.01-41.19-3.64zm-11 11c-10.35 10.38-8.71 28.79 3.66 41.17s30.82 14 41.18 3.65 8.74-28.81-3.64-41.19-30.82-14.01-41.19-3.64l-.01.01z"/><circle fill="#0094ff" r="14.39" cy="224.645" cx="181.065" class="cls-1"/></g></g><g stroke="null"><path fill="#41b883" d="M324.752 170.657 310 196.207l-14.752-25.55h-49.125L310 281.296l63.877-110.64h-49.125z" stroke-width=".65074"/><path fill="#34495e" d="M324.752 170.657 310 196.207l-14.752-25.55h-23.574L310 237.039l38.326-66.382h-23.574z" stroke-width=".65074"/></g></svg>