<svg xmlns="http://www.w3.org/2000/svg" viewBox="15.64 179.66 699.09 113.34"><g data-name="Layer 2"><g data-name="Layer 1"><rect x="15.645" y="181.275" fill="#0094ff" rx="24.83" height="111.45" width="111.45" class="cls-1"/><path d="M176.025 209.855c19.17 0 31.51 12.34 31.51 30.2s-12.34 30.22-31.51 30.22-31.5-12.34-31.5-30.21 12.34-30.21 31.5-30.21zm0 49.37c10.56.05 16.62-7.8 16.62-19.17s-6-19.16-16.57-19.16-16.56 7.8-16.56 19.16 5.96 19.22 16.51 19.22v-.05zM231.965 225.445c7.15 0 10.8 3 12.75 5.2h.81l2.6-4.39h9.9v40.76c0 12.5-8.77 19.32-22.73 19.32-13.64 0-21.35-6.82-23.06-15.34v-1.22h13.32c.65 3.73 3.41 6.82 9.25 6.82s8.93-3.09 8.93-8.12v-4.71h-.81c-2.27 2-5.6 3.58-11 3.58-10.07 0-19.89-6.83-19.89-20.95s9.86-20.95 19.93-20.95zm3.57 31.66c5.2 0 9-3.57 9-10.71s-3.81-10.72-9-10.72-9 3.57-9 10.72 3.81 10.71 9 10.71zM280.105 226.275v4.39h.82c1.54-2.2 4.71-5.2 11.85-5.2 8.28 0 11.94 4.3 13.4 6.25h.81c2-2.35 5.76-6.25 13.88-6.25 9.42 0 16.08 5.85 16.08 14.94v28.87h-14.3v-27.75c0-3.5-2.44-5.53-6-5.53-4.22 0-7.79 2-7.79 8.45v24.83h-14.29v-27.75c0-3.5-2.44-5.53-6-5.53-4.22 0-7.8 2-7.8 8.45v24.83h-14.3v-43h13.64zM344.245 239.815c1.22-8.61 9.5-14.54 21.4-14.54s20.71 5.92 20.71 17.7v26.3h-13.71v-4.53h-.81c-1.47 1.7-4.79 5.19-12.59 5.19-9.66 0-16.16-4.79-16.16-12.83s7-11.93 15.43-12.9l13.64-1.55v-1.13c0-4.39-2.11-6.66-6.82-6.66s-7.14 2.27-7.47 6.17h-13.62v-1.22zm18.68 20.38c5.52 0 9.25-3.57 9.25-8.93v-.49l-10.47 1.22c-2.44.24-4.31 1.62-4.31 4s1.87 4.2 5.53 4.2zM149.535 189.475v12.45h6.85v2.79h-10.74v-15.24h3.89zM161.795 189.475v2.92h-4.15v-2.92h4.15zm-.24 4v11.24h-3.72v-11.22l3.72-.02zM167.315 193.495v1.27h.21a3.69 3.69 0 0 1 3.35-1.49c2.54 0 4.23 1.46 4.23 4.13v7.3h-3.72v-7a1.57 1.57 0 0 0-1.7-1.76c-1.18 0-2.2.62-2.2 2.43v6.29h-3.72v-11.17h3.55zM189.905 204.395v.32h-4l-3.38-4.59-1.53 1.31v3.28h-3.72v-15.24h3.72v7.71h.22l4-3.69h4.63v.32l-4.84 4.17 4.9 6.41zM198.715 204.715v-1.27h-.22a3.63 3.63 0 0 1-3.34 1.48c-2.54 0-4.23-1.46-4.23-4.12v-7.31h3.72v7a1.56 1.56 0 0 0 1.69 1.75c1.19 0 2.21-.61 2.21-2.43v-6.32h3.72v11.22h-3.55zM208.025 193.495v1.34h.21a2.41 2.41 0 0 1 2.48-1.38h1.23v2.82h-1.3c-1.56 0-2.43.74-2.43 2.58v5.88h-3.72v-11.24h3.53zM217.345 189.475v2.92h-4.19v-2.92h4.19zm-.24 4v11.24h-3.72v-11.22l3.72-.02zM225.025 193.275c3.39 0 6.22 1.93 6.22 5.86s-2.83 5.86-6.22 5.86-6.22-1.92-6.22-5.86 2.84-5.86 6.22-5.86zm0 9.06c1.48 0 2.46-1.17 2.46-3.2s-1-3.19-2.46-3.19-2.45 1.16-2.45 3.19.97 3.14 2.45 3.14v.06zM240.645 204.715v-1.27h-.21a3.65 3.65 0 0 1-3.34 1.48c-2.54 0-4.23-1.46-4.23-4.12v-7.31h3.72v7a1.55 1.55 0 0 0 1.69 1.75c1.19 0 2.2-.61 2.2-2.43v-6.32h3.73v11.22h-3.56zM251.255 193.275c3.39 0 5.14 1.51 5.48 3.45v.32h-3.43c-.1-.93-.91-1.31-2-1.31s-1.71.38-1.71.91.44.72 1.08.84l2.28.45c2.31.44 3.88 1.31 3.88 3.34s-1.68 3.68-5.32 3.68-5.42-1.68-5.74-3.68v-.32h3.43c.13 1.13 1.1 1.55 2.24 1.55s1.82-.44 1.82-1-.4-.78-1.23-.93l-2.28-.42c-2.2-.4-3.73-1.33-3.73-3.37s1.84-3.51 5.23-3.51zM113.645 236.645a42.18 42.18 0 1 1-42.21-42.17 42.17 42.17 0 0 1 42.21 42.17zm-59.29-27.75c-10.36 10.38-8.71 28.8 3.65 41.18s30.82 14 41.18 3.65 8.74-28.81-3.64-41.19-30.82-14.01-41.19-3.64zm-11 11c-10.35 10.38-8.71 28.79 3.66 41.17s30.82 14 41.18 3.65 8.74-28.81-3.64-41.19-30.82-14.01-41.19-3.64l-.01.01z"/><circle fill="#0094ff" r="14.39" cy="236.645" cx="71.435" class="cls-1"/></g></g><g stroke="null"><path fill="#41b883" d="m499.224 179.656-15.112 26.176-15.113-26.176h-50.327l65.44 113.345 65.439-113.345h-50.327z" stroke-width=".66666"/><path fill="#34495e" d="m499.224 179.656-15.112 26.176-15.113-26.176h-24.15l39.263 68.006 39.263-68.006h-24.15z" stroke-width=".66666"/></g><text xml:space="preserve" font-family="'Inter'" font-size="60" y="269.2" x="563.35" stroke-width="0" stroke="#000">Vue.js</text></svg>